<?xml version="1.0" encoding="UTF-8" standalone="no"?>
<svg
   xmlns:dc="http://purl.org/dc/elements/1.1/"
   xmlns:cc="http://creativecommons.org/ns#"
   xmlns:rdf="http://www.w3.org/1999/02/22-rdf-syntax-ns#"
   xmlns:svg="http://www.w3.org/2000/svg"
   xmlns="http://www.w3.org/2000/svg"
   xmlns:sodipodi="http://sodipodi.sourceforge.net/DTD/sodipodi-0.dtd"
   xmlns:inkscape="http://www.inkscape.org/namespaces/inkscape"
   version="1.1"
   id="Capa_1"
   x="0px"
   y="0px"
   width="64"
   height="40"
   viewBox="0 0 63.999997 39.999998"
   xml:space="preserve"
   inkscape:version="1.0.1 (3bc2e813f5, 2020-09-07)"
   sodipodi:docname="json.svg"><metadata
     id="metadata41"><rdf:RDF><cc:Work
         rdf:about=""><dc:format>image/svg+xml</dc:format><dc:type
           rdf:resource="http://purl.org/dc/dcmitype/StillImage" /><dc:title></dc:title></cc:Work></rdf:RDF></metadata><defs
     id="defs39" /><sodipodi:namedview
     pagecolor="#ffffff"
     bordercolor="#666666"
     borderopacity="1"
     objecttolerance="10"
     gridtolerance="10"
     guidetolerance="10"
     inkscape:pageopacity="0"
     inkscape:pageshadow="2"
     inkscape:window-width="1920"
     inkscape:window-height="1027"
     id="namedview37"
     showgrid="false"
     inkscape:zoom="20.15625"
     inkscape:cx="32"
     inkscape:cy="20"
     inkscape:window-x="0"
     inkscape:window-y="0"
     inkscape:window-maximized="1"
     inkscape:current-layer="Capa_1"
     inkscape:document-rotation="0" /><g
     id="g7"
     transform="translate(0,-510.80103)" /><g
     id="g9"
     transform="translate(0,-510.80103)" /><g
     id="g11"
     transform="translate(0,-510.80103)" /><g
     id="g13"
     transform="translate(0,-510.80103)" /><g
     id="g15"
     transform="translate(0,-510.80103)" /><g
     id="g17"
     transform="translate(0,-510.80103)" /><g
     id="g19"
     transform="translate(0,-510.80103)" /><g
     id="g21"
     transform="translate(0,-510.80103)" /><g
     id="g23"
     transform="translate(0,-510.80103)" /><g
     id="g25"
     transform="translate(0,-510.80103)" /><g
     id="g27"
     transform="translate(0,-510.80103)" /><g
     id="g29"
     transform="translate(0,-510.80103)" /><g
     id="g31"
     transform="translate(0,-510.80103)" /><g
     id="g33"
     transform="translate(0,-510.80103)" /><g
     id="g35"
     transform="translate(0,-510.80103)" /><g
     id="g899"><rect
       ry="3.6520653"
       rx="3.6520653"
       y="7.2146502"
       x="4.0320482"
       height="25.570694"
       width="55.935894"
       id="rect4182"
       style="color:#000000;clip-rule:nonzero;display:inline;overflow:visible;visibility:visible;isolation:auto;mix-blend-mode:normal;color-interpolation:sRGB;color-interpolation-filters:linearRGB;solid-color:#000000;solid-opacity:1;fill:#ababab;fill-opacity:1;fill-rule:nonzero;stroke:none;stroke-width:0.108649;stroke-linecap:butt;stroke-linejoin:miter;stroke-miterlimit:4;stroke-dasharray:none;stroke-dashoffset:0;stroke-opacity:1;color-rendering:auto;image-rendering:auto;shape-rendering:auto;text-rendering:auto;enable-background:accumulate" /><g
       style="font-style:normal;font-weight:normal;font-size:26.4225px;line-height:125%;font-family:sans-serif;text-align:end;letter-spacing:0px;word-spacing:0px;text-anchor:end;fill:#ffffff;fill-opacity:1;stroke:none;stroke-width:1px;stroke-linecap:butt;stroke-linejoin:miter;stroke-opacity:1"
       id="text4184"
       transform="matrix(0.11412704,0,0,0.11412704,0.26471981,44.020892)" /><g
       aria-label="JSON"
       id="text879"
       style="font-size:49.911px;line-height:1.25;font-family:sans-serif;text-align:center;letter-spacing:0px;word-spacing:0px;text-anchor:middle;fill:#268bd2;stroke-width:1.24778"><path
         d="m 9.674055,22.708189 1.492704,-0.204714 q 0.05971,1.432996 0.537373,1.96184 0.477666,0.528843 1.322109,0.528843 0.622671,0 1.074747,-0.281481 0.452076,-0.290011 0.622671,-0.776206 0.170595,-0.494725 0.170595,-1.569472 v -8.615034 h 1.654769 v 8.521207 q 0,1.569472 -0.383838,2.430975 -0.375309,0.861504 -1.202693,1.31358 -0.818855,0.452076 -1.927721,0.452076 -1.646239,0 -2.524802,-0.946801 -0.870033,-0.946801 -0.835914,-2.814813 z"
         style="font-size:17.4689px;fill:#268bd2;stroke-width:1.24778"
         id="path881" /><path
         d="m 18.689987,22.239053 1.560941,-0.136475 q 0.110887,0.938271 0.511785,1.543882 0.409427,0.597082 1.262401,0.97239 0.852973,0.366779 1.91919,0.366779 0.946801,0 1.671829,-0.281482 0.725027,-0.281481 1.074747,-0.767676 0.358249,-0.494725 0.358249,-1.074747 0,-0.588552 -0.34119,-1.023568 -0.341189,-0.443547 -1.125925,-0.742087 -0.503255,-0.196184 -2.226261,-0.605612 -1.723007,-0.417957 -2.413916,-0.784735 -0.895622,-0.469136 -1.339169,-1.160045 -0.435016,-0.699438 -0.435016,-1.560941 0,-0.946801 0.537373,-1.765656 0.537374,-0.827384 1.569472,-1.253871 1.032098,-0.426487 2.294499,-0.426487 1.390347,0 2.448034,0.452076 1.066217,0.443546 1.63771,1.313579 0.571492,0.870034 0.614141,1.97037 l -1.586531,0.119416 q -0.127946,-1.185633 -0.870033,-1.791245 -0.733558,-0.605611 -2.175083,-0.605611 -1.501234,0 -2.192142,0.554433 -0.682379,0.545903 -0.682379,1.322109 0,0.673849 0.486195,1.108866 0.477665,0.435016 2.490683,0.895622 2.021547,0.452076 2.772164,0.793266 1.091806,0.503254 1.61212,1.27946 0.520314,0.767676 0.520314,1.774185 0,0.99798 -0.571492,1.885072 -0.571492,0.878563 -1.646239,1.373288 -1.066217,0.486195 -2.405386,0.486195 -1.697418,0 -2.848932,-0.494725 -1.142985,-0.494725 -1.799774,-1.484174 -0.64826,-0.997979 -0.682379,-2.251851 z"
         style="font-size:17.4689px;fill:#268bd2;stroke-width:1.24778"
         id="path883" /><path
         d="m 30.401315,20.166327 q 0,-3.113353 1.671828,-4.870479 1.671828,-1.765656 4.316047,-1.765656 1.731536,0 3.121883,0.827385 1.390348,0.827384 2.115375,2.311558 0.733557,1.475645 0.733557,3.352187 0,1.902131 -0.767676,3.403365 -0.767676,1.501233 -2.175083,2.277439 -1.407406,0.767677 -3.036586,0.767677 -1.765655,0 -3.156002,-0.852974 -1.390348,-0.852974 -2.106845,-2.328618 -0.716498,-1.475644 -0.716498,-3.121884 z m 1.705947,0.02559 q 0,2.26038 1.211223,3.56543 1.219752,1.29652 3.053645,1.29652 1.868013,0 3.070706,-1.31358 1.211222,-1.313579 1.211222,-3.727495 0,-1.526823 -0.520314,-2.661278 -0.511784,-1.142984 -1.509763,-1.765655 -0.98945,-0.631201 -2.226261,-0.631201 -1.757126,0 -3.028057,1.211223 -1.262401,1.202693 -1.262401,4.026036 z"
         style="font-size:17.4689px;fill:#268bd2;stroke-width:1.24778"
         id="path885" /><path
         d="M 44.475381,26.256559 V 13.751965 h 1.697418 l 6.567897,9.817727 v -9.817727 h 1.586531 v 12.504594 h -1.697418 l -6.567897,-9.826256 v 9.826256 z"
         style="font-size:17.4689px;fill:#268bd2;stroke-width:1.24778"
         id="path887" /></g></g></svg>
