<?xml version="1.0" encoding="UTF-8" standalone="no"?>
<!-- Generator: Adobe Illustrator 16.0.0, SVG Export Plug-In . SVG Version: 6.00 Build 0)  -->

<svg
   xmlns:dc="http://purl.org/dc/elements/1.1/"
   xmlns:cc="http://creativecommons.org/ns#"
   xmlns:rdf="http://www.w3.org/1999/02/22-rdf-syntax-ns#"
   xmlns:svg="http://www.w3.org/2000/svg"
   xmlns="http://www.w3.org/2000/svg"
   xmlns:sodipodi="http://sodipodi.sourceforge.net/DTD/sodipodi-0.dtd"
   xmlns:inkscape="http://www.inkscape.org/namespaces/inkscape"
   version="1.1"
   id="Capa_1"
   x="0px"
   y="0px"
   width="64"
   height="40"
   viewBox="0 0 63.999997 39.999998"
   xml:space="preserve"
   inkscape:version="0.91 r13725"
   sodipodi:docname="pager.svg"><metadata
     id="metadata41"><rdf:RDF><cc:Work
         rdf:about=""><dc:format>image/svg+xml</dc:format><dc:type
           rdf:resource="http://purl.org/dc/dcmitype/StillImage" /><dc:title /></cc:Work></rdf:RDF></metadata><defs
     id="defs39" /><sodipodi:namedview
     pagecolor="#ffffff"
     bordercolor="#666666"
     borderopacity="1"
     objecttolerance="10"
     gridtolerance="10"
     guidetolerance="10"
     inkscape:pageopacity="0"
     inkscape:pageshadow="2"
     inkscape:window-width="1600"
     inkscape:window-height="827"
     id="namedview37"
     showgrid="false"
     inkscape:zoom="9.4023105"
     inkscape:cx="35.196098"
     inkscape:cy="18.084257"
     inkscape:window-x="0"
     inkscape:window-y="0"
     inkscape:window-maximized="1"
     inkscape:current-layer="Capa_1" /><g
     id="g7"
     transform="translate(-0.67419289,-498.84791)" /><g
     id="g9"
     transform="translate(-0.67419289,-498.84791)" /><g
     id="g11"
     transform="translate(-0.67419289,-498.84791)" /><g
     id="g13"
     transform="translate(-0.67419289,-498.84791)" /><g
     id="g15"
     transform="translate(-0.67419289,-498.84791)" /><g
     id="g17"
     transform="translate(-0.67419289,-498.84791)" /><g
     id="g19"
     transform="translate(-0.67419289,-498.84791)" /><g
     id="g21"
     transform="translate(-0.67419289,-498.84791)" /><g
     id="g23"
     transform="translate(-0.67419289,-498.84791)" /><g
     id="g25"
     transform="translate(-0.67419289,-498.84791)" /><g
     id="g27"
     transform="translate(-0.67419289,-498.84791)" /><g
     id="g29"
     transform="translate(-0.67419289,-498.84791)" /><g
     id="g31"
     transform="translate(-0.67419289,-498.84791)" /><g
     id="g33"
     transform="translate(-0.67419289,-498.84791)" /><g
     id="g35"
     transform="translate(-0.67419289,-498.84791)" /><g
     id="g4202"
     transform="matrix(1,0,0,0.86576938,0,2.6846122)"><path
       inkscape:connector-curvature="0"
       id="rect4225"
       d="m 6.6871355,0.191399 c -1.354354,0 -2.445313,1.09096 -2.445313,2.445313 l 0,14.679687 c -0.886073,0.37842 -1.523999,1.23585 -1.445312,2.236328 0.463132,5.888589 0.567227,11.777427 1.734375,17.666016 0.263317,1.328508 1.090965,2.441377 2.445312,2.445313 l 49.7636755,0.144531 c 1.35434,0.0039 1.99588,-1.167018 2.44336,-2.445313 1.714288,-4.897216 1.801788,-11.422632 2.025388,-17.810547 0.0369,-1.053766 -0.64907,-1.940533 -1.5918,-2.285156 l 0,-14.630859 c 0,-1.354353 -1.089008,-2.445313 -2.443358,-2.445313 l -50.4863275,0 z"
       style="color:#000000;clip-rule:nonzero;display:inline;overflow:visible;visibility:visible;opacity:1;isolation:auto;mix-blend-mode:normal;color-interpolation:sRGB;color-interpolation-filters:linearRGB;solid-color:#000000;solid-opacity:1;fill:#929292;fill-opacity:1;fill-rule:nonzero;stroke:none;stroke-width:0.95199794;stroke-linecap:butt;stroke-linejoin:miter;stroke-miterlimit:4;stroke-dasharray:none;stroke-dashoffset:0;stroke-opacity:1;color-rendering:auto;image-rendering:auto;shape-rendering:auto;text-rendering:auto;enable-background:accumulate" /><path
       sodipodi:nodetypes="cccccccccc"
       inkscape:connector-curvature="0"
       id="path4234"
       d="m 7.8483562,3.517431 48.0255558,0 c 0.669436,0.3357269 1.407637,-0.2432699 1.432276,1.9256596 l 0,20.5373664 c -0.223645,1.451414 -1.076995,1.723167 -2.187887,1.992157 L 31.706213,29.118674 8.4680413,27.972614 C 7.3887298,27.364255 6.956741,26.070361 6.7639084,24.989442 L 6.2991449,5.4430906 C 6.5377077,4.1519747 7.1711578,3.6394173 7.8483562,3.517431 Z"
       style="fill:#484848;fill-opacity:1;fill-rule:evenodd;stroke:none;stroke-width:1px;stroke-linecap:butt;stroke-linejoin:miter;stroke-opacity:1" /><rect
       ry="1.2823535"
       rx="1.0840691"
       y="6.1581721"
       x="9.769166"
       height="18.355389"
       width="43.886974"
       id="rect4232"
       style="color:#000000;clip-rule:nonzero;display:inline;overflow:visible;visibility:visible;opacity:1;isolation:auto;mix-blend-mode:normal;color-interpolation:sRGB;color-interpolation-filters:linearRGB;solid-color:#000000;solid-opacity:1;fill:#236fd1;fill-opacity:1;fill-rule:nonzero;stroke:none;stroke-width:0.95199794;stroke-linecap:butt;stroke-linejoin:miter;stroke-miterlimit:4;stroke-dasharray:none;stroke-dashoffset:0;stroke-opacity:1;color-rendering:auto;image-rendering:auto;shape-rendering:auto;text-rendering:auto;enable-background:accumulate" /><g
       transform="translate(0,1.2762819)"
       id="g4196"><ellipse
         style="color:#000000;clip-rule:nonzero;display:inline;overflow:visible;visibility:visible;opacity:1;isolation:auto;mix-blend-mode:normal;color-interpolation:sRGB;color-interpolation-filters:linearRGB;solid-color:#000000;solid-opacity:1;fill:#565656;fill-opacity:1;fill-rule:nonzero;stroke:none;stroke-width:0.95199794;stroke-linecap:butt;stroke-linejoin:miter;stroke-miterlimit:4;stroke-dasharray:none;stroke-dashoffset:0;stroke-opacity:1;color-rendering:auto;image-rendering:auto;shape-rendering:auto;text-rendering:auto;enable-background:accumulate"
         id="path4236"
         cx="12.889501"
         cy="32.192211"
         rx="2.338568"
         ry="1.2082601" /><ellipse
         ry="1.2082601"
         rx="2.338568"
         cy="32.192211"
         cx="22.945343"
         id="ellipse4238"
         style="color:#000000;clip-rule:nonzero;display:inline;overflow:visible;visibility:visible;opacity:1;isolation:auto;mix-blend-mode:normal;color-interpolation:sRGB;color-interpolation-filters:linearRGB;solid-color:#000000;solid-opacity:1;fill:#565656;fill-opacity:1;fill-rule:nonzero;stroke:none;stroke-width:0.95199794;stroke-linecap:butt;stroke-linejoin:miter;stroke-miterlimit:4;stroke-dasharray:none;stroke-dashoffset:0;stroke-opacity:1;color-rendering:auto;image-rendering:auto;shape-rendering:auto;text-rendering:auto;enable-background:accumulate" /><ellipse
         style="color:#000000;clip-rule:nonzero;display:inline;overflow:visible;visibility:visible;opacity:1;isolation:auto;mix-blend-mode:normal;color-interpolation:sRGB;color-interpolation-filters:linearRGB;solid-color:#000000;solid-opacity:1;fill:#565656;fill-opacity:1;fill-rule:nonzero;stroke:none;stroke-width:0.95199794;stroke-linecap:butt;stroke-linejoin:miter;stroke-miterlimit:4;stroke-dasharray:none;stroke-dashoffset:0;stroke-opacity:1;color-rendering:auto;image-rendering:auto;shape-rendering:auto;text-rendering:auto;enable-background:accumulate"
         id="ellipse4240"
         cx="33.235039"
         cy="32.192211"
         rx="2.338568"
         ry="2.3775439" /><ellipse
         ry="2.3775439"
         rx="3.2739952"
         cy="43.437107"
         cx="42.150139"
         id="ellipse4242"
         style="color:#000000;clip-rule:nonzero;display:inline;overflow:visible;visibility:visible;opacity:1;isolation:auto;mix-blend-mode:normal;color-interpolation:sRGB;color-interpolation-filters:linearRGB;solid-color:#000000;solid-opacity:1;fill:#565656;fill-opacity:1;fill-rule:nonzero;stroke:none;stroke-width:0.95199794;stroke-linecap:butt;stroke-linejoin:miter;stroke-miterlimit:4;stroke-dasharray:none;stroke-dashoffset:0;stroke-opacity:1;color-rendering:auto;image-rendering:auto;shape-rendering:auto;text-rendering:auto;enable-background:accumulate"
         transform="matrix(0.97320831,-0.22992519,0.22992519,0.97320831,0,0)" /></g><g
       id="text4244"
       style="font-style:normal;font-weight:normal;font-size:30.64984131px;line-height:125%;font-family:sans-serif;text-align:center;letter-spacing:0px;word-spacing:0px;text-anchor:middle;fill:#000000;fill-opacity:1;stroke:none;stroke-width:1px;stroke-linecap:butt;stroke-linejoin:miter;stroke-opacity:1"><path
         id="path4190"
         style="font-size:18.7304554px;text-align:center;text-anchor:middle;fill:#ffffff;fill-opacity:1"
         d="m 12.113352,21.720615 0,-13.40764 4.618594,0 q 1.56392,0 2.387036,0.1920603 1.152362,0.2652262 1.966332,0.9603017 1.060904,0.896282 1.582211,2.295578 0.530452,1.390151 0.530452,3.182714 0,1.527337 -0.356683,2.707136 -0.356684,1.1798 -0.914573,1.957187 -0.55789,0.768241 -1.225528,1.216382 -0.658493,0.438995 -1.600503,0.667638 -0.932864,0.228643 -2.149246,0.228643 l -4.838092,0 z m 1.774272,-1.582211 2.862613,0 q 1.326131,0 2.076081,-0.246935 0.759096,-0.246934 1.207237,-0.695075 0.631055,-0.631056 0.978593,-1.69196 0.356683,-1.070051 0.356683,-2.588242 0,-2.103518 -0.695075,-3.228443 -0.68593,-1.13407 -1.673669,-1.518191 Q 18.28672,9.8951863 16.704509,9.8951863 l -2.816885,0 0,10.2432177 z"
         inkscape:connector-curvature="0" /><path
         id="path4192"
         style="font-size:18.7304554px;text-align:center;text-anchor:middle;fill:#ffffff;fill-opacity:1"
         d="m 25.594159,21.720615 0,-13.40764 2.670553,0 3.173568,9.493268 q 0.438995,1.326131 0.640201,1.984623 0.228644,-0.731658 0.713367,-2.149246 L 36.002,8.312975 l 2.387035,0 0,13.40764 -1.710251,0 0,-11.221811 -3.896081,11.221811 -1.600503,0 -3.87779,-11.413871 0,11.413871 -1.710251,0 z"
         inkscape:connector-curvature="0" /><path
         id="path4194"
         style="font-size:18.7304554px;text-align:center;text-anchor:middle;fill:#ffffff;fill-opacity:1"
         d="m 41.306523,21.720615 0,-13.40764 9.694474,0 0,1.5822113 -7.920203,0 0,4.1064327 7.417188,0 0,1.573066 -7.417188,0 0,4.563719 8.231158,0 0,1.582211 -10.005429,0 z"
         inkscape:connector-curvature="0" /></g></g></svg>